<?xml version="1.0" encoding="utf-8"?>
<!-- Generator: Adobe Illustrator 28.1.0, SVG Export Plug-In . SVG Version: 6.00 Build 0)  -->
<svg version="1.1" id="Layer_1" xmlns="http://www.w3.org/2000/svg" xmlns:xlink="http://www.w3.org/1999/xlink" x="0px" y="0px"
	 viewBox="0 0 241 328.61" style="enable-background:new 0 0 241 328.61;" xml:space="preserve">
<style type="text/css">
	.st0{fill:url(#SVGID_1_);}
	.st1{fill:#FFFFFF;}
	.st2{fill:#034EA2;}
	.st3{fill:#00AEEF;}
	.st4{fill:url(#SVGID_00000080922975716034003590000015701241057168927642_);}
</style>
<linearGradient id="SVGID_1_" gradientUnits="userSpaceOnUse" x1="123.0676" y1="212.4955" x2="123.0676" y2="25.6074">
	<stop  offset="0.042" style="stop-color:#034EA2"/>
	<stop  offset="0.9685" style="stop-color:#00AEEF"/>
</linearGradient>
<circle class="st0" cx="123.07" cy="119.05" r="93.44"/>
<g>
	<g>
		<g>
			<g>
				<path class="st1" d="M83.35,54.09c-6.69,4.2-12.82,9.36-17.86,15.26c-2.54,2.93-4.84,6.01-6.81,9.22
					c-1.98,3.2-3.75,6.45-5.14,9.77c2.29-5.27,5.17-10.31,8.61-14.93c-2.57,3.48-4.68,6.86-6.59,10.38
					c-1.91,3.52-3.6,7.2-5.07,11.37c0.14-0.65,0.37-1.48,0.64-2.38c0.28-0.89,0.67-1.83,1-2.74c0.67-1.82,1.44-3.43,1.51-4.17
					c4.57-9.64,11.39-18.19,19.56-24.89c8.16-6.73,17.72-11.53,27.62-14.17c-3.75,1.63-6.82,2.7-9.63,3.76
					C88.38,51.6,85.84,52.62,83.35,54.09z"/>
				<path class="st1" d="M46.38,118.27c0.04-2.14,0.06-4.23,0.26-6.29C46.47,114.18,46.49,116.34,46.38,118.27z"/>
				<path class="st1" d="M198.35,99.43c0.67,2.46,1.19,4.98,1.57,7.43C199.45,104.4,198.98,101.9,198.35,99.43z"/>
				<path class="st1" d="M108.83,42.24c1.27-0.34,2.58-0.52,3.9-0.75c9.99-1.05,20.32-0.17,30.18,2.79
					c-5.37-1.59-11.14-2.5-16.92-2.79C120.2,41.2,114.4,41.54,108.83,42.24z"/>
				<path class="st1" d="M98.02,43.93c-9.85,3.17-19.18,8.28-26.98,14.35C78.79,52.15,87.98,47.05,98.02,43.93z"/>
				<path class="st1" d="M183.14,175.4c0.09,0.02-0.01,0.22-0.19,0.48c-0.21,0.26-0.39,0.49-0.53,0.71
					c-3.21,3.16-6.63,6.08-10.27,8.67c0.85-0.72,1.56-1.48,2.44-2.18c0.97-0.76,1.75-1.37,2.44-1.91c0.7-0.53,1.31-1,1.9-1.52
					c0.59-0.51,1.2-1.05,1.89-1.71C181.51,177.27,182.23,176.44,183.14,175.4z"/>
				<path class="st1" d="M197.59,96.69l-0.12-0.24c-0.26-0.83-0.5-1.66-0.81-2.46c-0.02-0.1-0.05-0.19-0.08-0.3
					C196.98,94.66,197.29,95.67,197.59,96.69z"/>
				<path class="st1" d="M186.93,171.13c0.18,0.03,0.36,0.05,0.69-0.18c-0.79,1-1.67,1.92-2.52,2.86c-0.84,0.95-1.74,1.84-2.64,2.74
					c0.19-0.24,0.36-0.48,0.49-0.67c0.55-0.64,1.29-1.42,2.01-2.27C185.67,172.77,186.44,171.94,186.93,171.13z"/>
				<path class="st1" d="M206.91,117.86c-0.05-1.64-0.4-3.09-0.5-3.85c-0.05-4.23-0.31-8.49-1.2-13.44
					c-0.26-0.74-0.62-2.35-1.15-3.81c-0.13-0.92-0.29-1.9-0.49-2.94c3.13,10.62,4.2,22.08,2.86,33.62c0.15-1.55,0.23-3.12,0.36-4.71
					C206.82,121.13,206.9,119.51,206.91,117.86z"/>
				<path class="st1" d="M41.21,120.33c0.1,3.48,0.48,7.08,0.98,10.72c0.56,3.64,1.35,7.3,2.39,10.89
					c2.14,7.15,5.33,13.99,9.37,19.45c-2.01-3.42-4.03-7.28-5.6-11.29c-1.6-4-2.85-8.1-3.69-11.85c-1.61-7.54-1.58-13.57-0.97-14.74
					c0.67-1.18,0.75,4.09,2.11,11c0.65,3.46,1.67,7.3,2.91,10.95c1.26,3.64,2.81,7.04,4.24,9.7c-0.6-1.49-0.6-1.49-1.19-2.97
					c0.61,1.46,1.15,2.99,2.03,4.13c-0.35-0.72-0.73-1.63-1.14-2.6c-0.42-0.97-0.87-2-1.22-3.02c-0.78-2.01-1.31-3.92-1.42-4.81
					c0.45,0.83,0.87,1.66,1.34,2.47c-1.09-3.87-2.67-9.35-3.48-14.96c-0.83-5.6-0.88-11.26-0.37-15.14
					c-0.83,9.43,0.45,20.17,4.71,30.56c2.11,5.19,4.91,10.28,8.35,15.06c3.47,4.76,7.6,9.18,12.23,13.09
					c4.65,3.91,9.86,7.24,15.38,9.94c5.53,2.7,11.44,4.64,17.45,5.91c6.01,1.28,12.16,1.71,18.21,1.51c6.04-0.22,12-1.09,17.65-2.67
					c6.29-1.83,12.24-4.41,17.59-7.73c2.71-1.6,5.21-3.47,7.64-5.36c2.36-1.97,4.65-3.99,6.71-6.19c2.11-2.15,3.98-4.47,5.78-6.8
					c1.72-2.39,3.36-4.79,4.76-7.31c2.83-5,5.06-10.19,6.55-15.47c0.58-1.99,1.71-5.32,2.5-9.12c0.83-3.79,1.41-8.02,1.67-11.57
					c0.18-6.31-0.41-12.62-1.81-18.7c-1.48-6.06-3.64-11.93-6.67-17.28c-6.11-11.55-14.98-21.38-25.96-28.46
					c-10.95-7.07-24.11-11.34-38.12-11.29c-1.39,0.02-2.91-0.01-4.21-0.09c-1.29-0.03-2.36-0.12-2.82-0.28
					c-0.47-0.16-0.33-0.37,0.8-0.64c0.56-0.13,1.38-0.3,2.49-0.43c1.11-0.08,2.53-0.24,4.28-0.25c5.82-0.16,11.71,0.43,17.47,1.76
					c5.75,1.36,11.34,3.49,16.6,6.27c-0.36-0.06-0.93-0.28-1.63-0.6c-0.35-0.16-0.73-0.34-1.13-0.53c-0.41-0.18-0.84-0.36-1.28-0.55
					c-1.74-0.8-3.68-1.52-4.95-1.85c4.04,1.63,7.56,3.48,10.94,5.5c3.38,2.03,6.61,4.26,9.92,6.93c-4.41-3.57-9.22-6.64-14.3-9.13
					c6.35,3.11,12.61,7.33,18.14,12.59c5.58,5.21,10.38,11.48,14.22,18.23c1.33,2.52,2.22,5.06,3.08,7.87
					c0.93,2.8,1.81,5.87,3.27,9.63c-1.08-4.92-2.68-9.78-4.79-14.46c-2.13-4.67-4.78-9.15-7.89-13.31
					c-6.22-8.33-14.32-15.43-23.6-20.33c0.04,0.01,0.08,0.02,0.11,0.02c-8.29-4.36-16.5-6.93-25.45-8.09c0.7,0.08,1.4,0.13,2.1,0.24
					c0.69,0.11,1.38,0.22,2.06,0.33c1.37,0.19,2.66,0.54,3.86,0.84l-2.39-0.62c-0.8-0.18-1.61-0.33-2.41-0.5
					c-1.6-0.37-3.24-0.54-4.86-0.8c-3.26-0.36-6.54-0.6-9.82-0.52c-3.28,0-6.54,0.34-9.78,0.78c-1.61,0.29-3.23,0.51-4.82,0.9
					c-0.8,0.18-1.6,0.35-2.39,0.55l-2.36,0.66c8.73-2.99,18.41-4.24,28.11-3.46c9.7,0.74,19.38,3.51,28.15,8.1
					c8.78,4.57,16.62,10.93,22.93,18.43c6.33,7.49,11.11,16.11,14.17,25.07c-1.32-5.18-3.94-10.9-7.15-16.03
					c-3.22-5.13-6.95-9.67-9.89-13.33c3.04,3.15,5.81,6.56,8.27,10.2c2.44,3.65,4.57,7.51,6.35,11.55
					c3.57,8.06,5.74,16.8,6.25,25.74c-0.14-1.32-0.3-2.61-0.56-3.88c0.43,5.52,0.5,11.24-0.02,16.92c-0.53,5.68-1.7,11.3-3.5,16.51
					c-0.34,0.93-0.63,1.86-1.03,2.77c0.4-0.89,0.69-1.84,1.03-2.77c3.37-9.56,4.68-19.68,4.09-29.55c0.47,4.51,0.47,9.38-0.32,15.09
					c0.38-1.52,0.6-3.42,0.84-5.49c0.15-2.08,0.3-4.34,0.26-6.61c-0.16-5.95-0.99-11.88-2.52-17.57c2.39,8.79,3.35,17.86,2.99,26.17
					c1.32-12.42-0.81-25.52-5.71-37.12c1.38,3.17,2.62,6.41,3.56,9.75c1,3.31,1.7,6.71,2.24,10.13c1.48,11.53,0.47,23.45-3.19,34.67
					c0.14-0.42,0.25-0.87,0.36-1.3c-0.22,0.87-0.53,1.71-0.8,2.56c-1.5,4.36-3.39,8.6-5.64,12.67c-1.98,3.68-4.14,7.17-6.47,10.54
					c-0.43,0.55-0.85,1.09-1.28,1.64c0.7-1.12,1.01-1.68-0.64,0.22c-3.61,3.99-7.57,7.95-12.12,11.55
					c-2.26,1.82-4.71,3.47-7.26,5.05c-2.59,1.49-5.29,2.93-8.16,4.05c-2.98,1.24-7,2.88-11.51,4.22c-1.25,0.27-1.89,0.46-2.45,0.69
					c-0.98,0.24-1.97,0.53-2.98,0.74c-1.23,0.22-2.46,0.47-3.69,0.67c-1.24,0.18-2.46,0.37-3.68,0.55c1.21-0.14,2.44-0.33,3.68-0.5
					c1.23-0.2,2.46-0.48,3.7-0.72c0.93-0.16,1.83-0.42,2.73-0.63c-0.6,0.25-1.22,0.56-2.58,0.84c8.48-1.68,16.89-4.72,24.56-9.28
					c7.68-4.53,14.66-10.46,20.4-17.45c-0.64,0.89-1.54,2.13-1.91,2.66c1.09-1.42,2.19-2.82,3.19-4.3
					c3.57-4.62,6.64-9.63,9.02-14.96c-0.65,1.61-1.33,3.08-1.84,4.42c3.99-7.32,6.87-15.3,8.27-23.56
					c0.73-4.12,1.14-8.31,1.15-12.51c0.02-4.19-0.2-8.4-0.86-12.54c-2.01-15.6-8.86-30.44-19.38-42.02
					c5.37,6.49,10.18,13.91,13.58,22.14c-2.41-5.4-5.42-10.52-8.94-15.26c-3.54-4.73-7.63-9.04-12.11-12.88
					c-8.95-7.71-19.67-13.28-31.04-16.44c1.06,0.16,2.21,0.38,3.39,0.6c1.18,0.22,2.36,0.55,3.52,0.81
					c1.16,0.25,2.23,0.61,3.22,0.84c0.99,0.23,1.85,0.45,2.53,0.6c0.02-0.45-7.24-3.34-2.94-1.86c1.98,0.62,3.83,1.4,5.62,2.14
					c1.74,0.83,3.45,1.58,5,2.47c3.16,1.66,5.87,3.51,8.32,5.19c4.86,3.42,8.38,6.54,11.38,8.45c0.31,0.16-0.2-0.66-1.08-1.91
					c-0.95-1.19-2.22-2.88-3.54-4.31c-0.65-0.73-1.27-1.44-1.81-2.05c-0.56-0.59-1.02-1.1-1.31-1.47c-0.59-0.73-0.52-0.89,0.78,0.02
					c4.25,3.12,11.46,9.46,17.34,17.91c0.85,1.21,1.6,2.52,2.43,3.81c0.8,1.31,1.54,2.68,2.33,4.06c0.15,0.37,0.54,0.91,1.02,1.61
					c2.58,4.93,4.56,10.02,5.92,14.61c1.4,4.58,2.07,8.66,2.49,11.56c0.24,2.17,0.49,4.31,0.58,6.46c0,1.13-0.06,2.1-0.22,2.85
					c0.14,1.34,0.32,2.7,0.33,4.05c-0.14,5.75-0.83,11.43-2.07,16.93c-0.82,3.03-1.77,6.01-2.9,8.89c0.12-0.03,0.42-0.46,0.34,0.14
					c-1.1,3.36-2.53,6.58-4.01,9.75c-1.59,3.12-3.24,6.21-5.18,9.11c-0.8,1.17-1.66,2.23-2.5,3.21c-0.42,0.49-0.82,0.98-1.24,1.43
					c-0.43,0.44-0.85,0.86-1.26,1.27c-1.91,3.27-6,8.09-11.22,12.51c-5.17,4.49-11.51,8.39-16.9,11.16l0.03,0.02
					c-5.46,2.73-11.27,4.92-17.33,6.38c-1.02,0.14-2,0.25-2.92,0.33c-1.46,0.49-3.06,0.74-3.8,0.97c-4.92,0.65-9.12,0.74-13.28,0.57
					c-0.75,0.1-2.19,0.36-3.82,0.33c-1.62-0.05-3.21-0.24-4.78-0.34c-1.57-0.16-3.11-0.37-4.63-0.55
					c-3.54-0.65-7.11-1.37-10.62-2.49c-11.86-3.58-22.58-9.9-31.38-17.99c-0.21-0.34-0.17-0.52-0.14-0.7
					c-0.78-0.51-1.57-1.3-2.36-2.04c-0.79-0.74-1.54-1.5-2.14-2.07c0.26,0.19,0.44,0.29,0.46,0.2c-0.98-0.94-1.76-1.7-2.39-2.4
					c-0.61-0.71-1.11-1.33-1.59-1.94c-0.97-1.2-1.75-2.47-3.2-4.43c-0.64-0.89-1.36-1.64-2.03-2.5c-0.31-0.44-0.57-0.91-0.85-1.37
					c-2.43-4.99-5.19-9.7-7.41-15.43c-2.05-5.76-3.48-11.73-4.17-17.76c-0.25-2.4-0.32-4.06-0.23-5.54
					c0.03-0.74,0.06-1.43,0.09-2.14C41.09,121.89,41.14,121.15,41.21,120.33z"/>
				<path class="st1" d="M170.8,186.18c-4.82,3.29-9.95,6.05-15.29,8.24C161.21,191.89,165.86,188.88,170.8,186.18z"/>
				<path class="st1" d="M171.02,49.18c-0.86-0.8-1.8-1.62-2.86-2.4c-1.05-0.79-2.15-1.63-3.37-2.38
					c13.05,7.68,24.05,18.72,31.52,32.17l-0.02,0.03c-3.07-5.32-7.29-11.59-12.08-16.61C179.49,54.9,174.42,50.98,171.02,49.18z"/>
				<path class="st1" d="M182.96,175.88c-0.13,0.19-0.31,0.43-0.49,0.67c-0.01,0.01-0.02,0.02-0.04,0.04
					C182.56,176.38,182.74,176.14,182.96,175.88z"/>
				<path class="st1" d="M143.56,42.44c-0.44-0.13-0.86-0.25-1.3-0.38c1.66,0.43,3.32,0.85,4.95,1.41c1.65,0.49,3.25,1.13,4.86,1.73
					C149.47,44.28,146.59,43.25,143.56,42.44z"/>
				<path class="st1" d="M106.95,40.42c-0.87,0.15-1.72,0.35-2.58,0.56c-0.85,0.21-1.71,0.4-2.56,0.62
					c-1.68,0.51-3.39,0.94-5.04,1.56c-3.34,1.1-6.57,2.53-9.72,4.06c-8.18,3.86-15.51,9.06-21.83,14.8
					C76.49,50.83,91.21,43.18,106.95,40.42z"/>
				<path class="st1" d="M145.12,36.3c-0.74-0.24-1.48-0.5-2.24-0.73c-0.76-0.21-1.52-0.43-2.28-0.64
					c-1.52-0.46-3.07-0.79-4.63-1.14c1.57,0.3,3.14,0.56,4.68,0.96l2.31,0.56c0.77,0.2,1.52,0.44,2.28,0.65
					C144.64,35.9,145.09,36.18,145.12,36.3z"/>
				<path class="st1" d="M169.38,54.89c-0.56-0.42-1.15-0.82-1.72-1.22c1.55,0.94,3.01,2,4.5,3.04
					C171.61,56.34,170.3,55.49,169.38,54.89z"/>
				<path class="st1" d="M111.75,32.89c1.17-0.15,2.34-0.2,3.5-0.28c1.17-0.07,2.33-0.15,3.49-0.14c-1.38,0.07-2.74,0.3-4.1,0.52
					C113.88,32.88,112.89,32.83,111.75,32.89z"/>
				<path class="st1" d="M77.51,44.62c-1.37,0.84-2.71,1.69-4.01,2.54c-1.27,0.9-2.55,1.74-3.74,2.64c2.94-2.25,6.07-4.44,9.34-6.3
					C78.41,44.03,77.88,44.45,77.51,44.62z"/>
			</g>
		</g>
	</g>
</g>
<g>
	<path class="st1" d="M124.03,181.6h-2.9l-9.46-40c-3.57-15.1-7.14-26.56-10.71-34.36c-13.03,7.3-24.65,11.54-37.35,11.54
		c-6.97,0-13.61-1.49-19.5-4.73c-5.98-3.32-9.88-9.38-9.88-17.1c0-4.32,1.41-8.05,4.32-11.12c5.64-6.22,14.03-8.71,22.91-8.71
		c17.68,0,32.28,8.96,41.91,23.57l2.07,3.15l15.77-9.54c4.4-2.57,7.97-4.65,10.79-6.06c2.82-1.41,6.22-2.82,10.29-4.07
		c4.07-1.33,7.88-1.99,11.45-1.99c6.22,0,11.37,1.66,15.44,5.06c4.07,3.4,6.14,7.72,6.14,13.11c0,5.48-1.74,10.04-5.23,13.69
		c-3.49,3.57-8.13,5.39-14.03,5.39c-4.15,0-7.8-1.16-10.95-3.4c-3.15-2.24-4.73-5.39-4.73-9.3c0-4.07,2.08-8.05,7.05-8.05
		c2.74,0,4.73,2.24,4.73,4.65c0,1.99-1.33,3.65-3.9,3.73c0.75-0.58,1.16-1.33,1.16-2.24c0-1.58-1-2.82-2.99-2.82
		c-2.57,0-4.07,2.66-4.07,5.31c0,3.57,1.41,6.31,4.32,8.3c2.9,1.91,6.06,2.9,9.54,2.9c4.73,0,8.63-1.49,11.87-4.56
		c3.24-3.07,4.81-7.39,4.81-12.86c0-5.73-1.83-10.12-5.56-13.28c-3.65-3.15-8.47-4.73-14.44-4.73c-3.32,0-7.05,0.66-11.12,2.07
		c-4.07,1.41-7.39,2.74-9.88,4.07c-2.41,1.24-5.89,3.15-10.29,5.73c-2.07,1.16-5.06,2.99-9.05,5.39l-6.81,4.15
		c3.9,6.56,7.14,13.78,9.54,21.58s4.73,17.01,6.97,27.55l1.25,6.06l1.58,7.39c0.42-1.83,1.33-6.06,2.9-12.61
		c1.58-6.64,2.82-12.37,3.9-17.18c1.08-4.81,1.66-7.39,1.66-7.8c0-1.99-0.83-2.82-3.82-2.82v-1.33h11.87v1.33
		c-2.74,0-4.81,1.91-5.39,4.48L124.03,181.6z M100.71,106.58C92,87.74,78.55,78.36,60.54,78.36c-11.78,0-24.65,5.98-24.65,19.5
		c0.83,14.52,15.02,20.25,28.38,20.17C76.81,118.03,87.52,113.96,100.71,106.58z"/>
</g>
<g>
	<path class="st2" d="M52.2,275.59l-19.89-47.84h5.85l14.63,35.95l15.02-35.95h5.4l-20.22,47.84H52.2z"/>
	<path class="st2" d="M84.38,227.74h25.29v4.61H89.71v15.02h17.23v4.68H89.71v16.77h20.22v4.94H84.38V227.74z"/>
	<path class="st2" d="M125.65,227.74h10.08c17.75,0,27.56,9.23,27.56,23.01c0,8.52-3.9,15.28-11.38,19.57
		c-4.88,2.8-10.01,3.45-16.19,3.45h-10.08V227.74z M136.7,268.69c13.52,0,21-6.96,21-17.94c0-10.99-7.48-18.01-21-18.01h-5.66v35.95
		H136.7z"/>
	<path class="st2" d="M190.94,226.57h0.65l21.45,47.19h-5.92l-5.14-11.7h-21.78l-5.14,11.7h-5.66L190.94,226.57z M200.04,257.64
		l-8.84-20.28l-8.97,20.28H200.04z"/>
</g>
<g>
	<path class="st3" d="M40.07,286.19h-5.33v-1.62h12.46v1.62h-5.33v13.46h-1.81V286.19z"/>
	<path class="st3" d="M51.15,284.57h8.29v1.51H52.9V291h5.64v1.53H52.9v5.5h6.62v1.62h-8.37V284.57z"/>
	<path class="st3" d="M64.69,284.57h1.79v13.46h7.09v1.62h-8.88V284.57z"/>
	<path class="st3" d="M77.45,284.57h8.29v1.51H79.2V291h5.64v1.53H79.2v5.5h6.62v1.62h-8.37V284.57z"/>
	<path class="st3" d="M97.41,300.14c-1.73,0-3.34-0.57-4.64-1.64c-1.85-1.49-2.9-3.77-2.9-6.39c0-4.64,3.28-8.05,7.6-8.05
		c1.58,0,3.02,0.47,4.41,1.43l-0.19,1.87c-1.34-1.13-2.68-1.68-4.2-1.68c-3.34,0-5.82,2.68-5.82,6.43c0,3.69,2.41,6.37,5.75,6.37
		c1.64,0,3.11-0.64,4.62-1.92l-0.15,2.11C100.59,299.63,99.05,300.14,97.41,300.14z"/>
	<path class="st3" d="M107.66,286.36c1.38-1.47,3.26-2.28,5.22-2.28c1.96,0,3.81,0.81,5.22,2.3c1.41,1.51,2.17,3.49,2.17,5.73
		c0,1.87-0.51,3.56-1.51,4.94c-1.41,1.96-3.6,3.09-5.88,3.09c-1.94,0-3.83-0.83-5.22-2.3c-1.43-1.53-2.17-3.47-2.17-5.73
		C105.48,289.85,106.23,287.89,107.66,286.36z M112.88,298.48c3.11,0,5.56-2.66,5.56-6.37s-2.45-6.37-5.56-6.37
		s-5.58,2.68-5.58,6.37C107.29,295.77,109.77,298.48,112.88,298.48z"/>
	<path class="st3" d="M126.78,284.08h0.17l5.2,12.25l5.22-12.25h0.17l2.98,15.57h-1.77l-1.92-10.4l-4.58,10.91h-0.23l-4.64-10.86
		l-2,10.35h-1.66L126.78,284.08z"/>
	<path class="st3" d="M153.03,284.57h8.39v1.58h-6.62v5.22h6.01v1.58h-6.01v6.71h-1.77V284.57z"/>
	<path class="st3" d="M174.13,286.14h-7.86l0.23-1.58h10.67l-9.16,13.48h9.05l-0.26,1.6h-11.86L174.13,286.14z"/>
	<path class="st3" d="M188.26,300.14c-1.73,0-3.34-0.57-4.64-1.64c-1.85-1.49-2.9-3.77-2.9-6.39c0-4.64,3.28-8.05,7.6-8.05
		c1.58,0,3.02,0.47,4.41,1.43l-0.19,1.87c-1.34-1.13-2.68-1.68-4.2-1.68c-3.34,0-5.82,2.68-5.82,6.43c0,3.69,2.41,6.37,5.75,6.37
		c1.64,0,3.11-0.64,4.62-1.92l-0.15,2.11C191.43,299.63,189.9,300.14,188.26,300.14z"/>
	<path class="st3" d="M198.5,286.36c1.38-1.47,3.26-2.28,5.22-2.28c1.96,0,3.81,0.81,5.22,2.3c1.41,1.51,2.17,3.49,2.17,5.73
		c0,1.87-0.51,3.56-1.51,4.94c-1.41,1.96-3.6,3.09-5.88,3.09c-1.94,0-3.83-0.83-5.22-2.3c-1.43-1.53-2.17-3.47-2.17-5.73
		C196.33,289.85,197.07,287.89,198.5,286.36z M203.72,298.48c3.11,0,5.56-2.66,5.56-6.37s-2.45-6.37-5.56-6.37s-5.58,2.68-5.58,6.37
		C198.14,295.77,200.61,298.48,203.72,298.48z"/>
</g>
</svg>
