<?xml version="1.0" encoding="utf-8"?>
<!-- Generator: Adobe Illustrator 28.1.0, SVG Export Plug-In . SVG Version: 6.00 Build 0)  -->
<svg version="1.1" id="Layer_1" xmlns="http://www.w3.org/2000/svg" xmlns:xlink="http://www.w3.org/1999/xlink" x="0px" y="0px"
	 viewBox="0 0 305.78 112.44" style="enable-background:new 0 0 305.78 112.44;" xml:space="preserve">
<style type="text/css">
	.st0{fill:url(#SVGID_1_);}
	.st1{fill:#FFFFFF;}
	.st2{fill:#034EA2;}
	.st3{fill:#00AEEF;}
	.st4{fill:url(#SVGID_00000154422713667429395710000001403009651990900391_);}
</style>
<linearGradient id="SVGID_1_" gradientUnits="userSpaceOnUse" x1="54.674" y1="97.3622" x2="54.674" y2="22.4991">
	<stop  offset="0.042" style="stop-color:#034EA2"/>
	<stop  offset="0.9685" style="stop-color:#00AEEF"/>
</linearGradient>
<circle class="st0" cx="54.67" cy="59.93" r="37.43"/>
<g>
	<g>
		<g>
			<g>
				<path class="st1" d="M38.78,33.94c-5.44,3.27-9.66,8.42-11.95,13.7c0.52-1.02,0.92-2.12,1.56-3.08l0.89-1.48
					c0.31-0.48,0.68-0.93,1.01-1.4c-0.52,0.69-1.03,1.35-1.42,2.07c-0.4,0.71-0.89,1.35-1.23,2.08c-0.36,0.72-0.72,1.44-1.09,2.17
					c-0.3,0.77-0.61,1.55-0.94,2.38c0.12-0.52,0.41-1.31,0.66-2.05c0.24-0.74,0.6-1.36,0.63-1.66c1.83-3.86,4.54-7.29,7.81-9.98
					c3.26-2.71,7.09-4.62,11.06-5.67c-0.77,0.28-1.42,0.64-2.06,0.86c-0.64,0.23-1.24,0.41-1.79,0.66
					C40.8,32.96,39.75,33.29,38.78,33.94z"/>
				<path class="st1" d="M23.95,59.62c0.04-0.86,0.08-1.69,0.12-2.52C24.05,57.98,24.02,58.84,23.95,59.62z"/>
				<path class="st1" d="M84.8,52.08c0.32,0.98,0.48,1.99,0.63,2.97C85.24,54.07,85.1,53.06,84.8,52.08z"/>
				<path class="st1" d="M48.97,29.19c0.52-0.1,1.04-0.21,1.56-0.31c4-0.42,8.13-0.06,12.08,1.12
					C58.3,28.72,53.43,28.63,48.97,29.19z"/>
				<path class="st1" d="M44.64,29.84c-3.95,1.27-7.68,3.32-10.8,5.75C36.94,33.14,40.62,31.1,44.64,29.84z"/>
				<path class="st1" d="M78.72,82.48c0.04,0.01,0,0.09-0.07,0.2c-0.08,0.1-0.15,0.2-0.21,0.29c-0.6,0.68-1.34,1.21-2,1.81
					c-0.34,0.29-0.67,0.6-1.03,0.87l-1.1,0.78c0.35-0.28,0.64-0.58,1-0.85c0.75-0.61,1.23-1,1.72-1.39
					C77.52,83.78,78.03,83.36,78.72,82.48z"/>
				<path class="st1" d="M84.51,50.98l-0.04-0.1c-0.1-0.34-0.18-0.67-0.32-0.99c-0.01-0.04-0.02-0.08-0.03-0.12
					C84.29,50.16,84.4,50.57,84.51,50.98z"/>
				<path class="st1" d="M80.25,80.79c0.07,0.01,0.14,0.02,0.27-0.07c-0.63,0.8-1.38,1.49-2.07,2.24c0.07-0.1,0.13-0.19,0.19-0.27
					C79.06,82.15,79.84,81.43,80.25,80.79z"/>
				<path class="st1" d="M88.26,59.45c-0.03-0.66-0.19-1.23-0.24-1.54c0.06-1.7-0.16-3.39-0.45-5.39c-0.11-0.3-0.27-0.93-0.49-1.52
					c-0.04-0.37-0.1-0.77-0.17-1.19c1.26,4.25,1.69,8.84,1.15,13.46C88.15,62.05,88.2,60.77,88.26,59.45z"/>
				<path class="st1" d="M21.9,60.44c0.04,0.7,0.08,1.41,0.12,2.12c0.04,0.72,0.19,1.44,0.28,2.17c0.14,1.47,0.59,2.91,0.93,4.37
					c0.22,0.71,0.49,1.41,0.74,2.11l0.39,1.04l0.48,0.99c0.33,0.65,0.64,1.3,0.99,1.91c0.39,0.59,0.78,1.17,1.16,1.73
					c-1.69-2.7-3.08-6.25-3.71-9.27c-0.39-1.49-0.47-2.87-0.54-3.9c-0.11-1.03,0.04-1.76,0.15-1.99c0.13-0.24,0.22,0.17,0.29,0.99
					c0.13,0.82,0.31,2.02,0.53,3.42c0.52,2.77,1.71,6.13,2.86,8.27c-0.23-0.6-0.23-0.6-0.45-1.2c0.24,0.59,0.41,1.22,0.79,1.66
					c-0.3-0.56-0.6-1.46-0.93-2.26c-0.34-0.79-0.54-1.56-0.57-1.93c0.17,0.33,0.33,0.67,0.52,1c-0.2-0.78-0.44-1.73-0.74-2.74
					c-0.24-1.02-0.43-2.15-0.66-3.26c-0.09-1.13-0.25-2.25-0.27-3.29c0.02-1.04,0.06-2,0.12-2.77c-0.32,3.78,0.17,8.08,1.9,12.24
					c1.69,4.15,4.53,8.13,8.24,11.28c3.73,3.12,8.34,5.32,13.15,6.34c4.82,1.01,9.83,0.73,14.35-0.49
					c5.08-1.38,9.44-4.26,12.79-7.71c0.44-0.41,0.82-0.88,1.2-1.34l1.13-1.37l0.98-1.46c0.32-0.48,0.66-0.95,0.91-1.47
					c0.53-1.02,1.12-2,1.5-3.06c0.21-0.52,0.43-1.03,0.64-1.55c0.16-0.53,0.31-1.06,0.47-1.59c0.11-0.4,0.35-0.91,0.49-1.55
					c0.16-0.63,0.34-1.35,0.54-2.1c0.28-1.53,0.61-3.21,0.64-4.64c0.16-2.53-0.21-5.04-0.69-7.49l-0.52-1.8l-0.26-0.9l-0.35-0.86
					l-0.7-1.72l-0.87-1.63l-0.44-0.87l-0.53-0.83c-0.36-0.55-0.68-1.11-1.05-1.64c-0.81-1.02-1.53-2.1-2.45-3.02
					c-0.83-1-1.82-1.84-2.78-2.72c-0.48-0.44-1.03-0.79-1.54-1.2c-0.51-0.4-1.03-0.8-1.6-1.12l-1.67-1.03
					c-0.59-0.29-1.18-0.58-1.77-0.87c-0.58-0.32-1.21-0.54-1.83-0.77c-0.63-0.22-1.24-0.51-1.89-0.67c-2.57-0.78-5.3-1.14-8.09-1.2
					c-2.19,0.12-5.39-0.29,0.22-0.67c4.66-0.12,9.42,1,13.64,3.21c-0.59-0.07-2.54-1.22-3.61-1.39c3.21,1.35,5.7,2.83,8.37,4.95
					c-1.81-1.38-3.68-2.68-5.74-3.63c5.15,2.4,9.89,6.91,12.97,12.32c1.01,2.07,1.41,4.01,2.52,7.02
					c-0.86-3.94-2.58-7.78-5.07-11.12c-2.49-3.33-5.71-6.2-9.44-8.15l0.04,0.01c-3.31-1.76-6.61-2.77-10.2-3.23
					c1.11,0.16,2.26,0.24,3.21,0.57l-0.95-0.27c-0.32-0.07-0.65-0.12-0.97-0.18l-1.94-0.34c-0.65-0.07-1.31-0.09-1.97-0.14
					c-0.66-0.05-1.31-0.1-1.97-0.05l-1.97,0.08c-0.66,0.03-1.3,0.17-1.95,0.25c-1.31,0.13-2.57,0.51-3.84,0.82
					c6.99-2.47,15.52-1.85,22.53,1.86c3.52,1.83,6.66,4.37,9.19,7.38c2.53,3,4.45,6.45,5.67,10.04c-0.15-0.51-0.32-1.04-0.5-1.59
					c-0.09-0.27-0.19-0.55-0.28-0.82c-0.12-0.27-0.25-0.53-0.38-0.8c-0.26-0.54-0.52-1.08-0.79-1.63c-0.28-0.54-0.63-1.04-0.94-1.56
					c-1.24-2.08-2.79-3.86-3.94-5.35c4.93,5,7.89,11.87,8.34,19.01c-0.04-0.53-0.09-1.05-0.22-1.55c0.08,0.55,0.08,1.11,0.09,1.67
					l0.05,1.69c0.01,1.13-0.11,2.27-0.14,3.41c-0.17,1.13-0.3,2.26-0.51,3.37c-0.14,0.55-0.28,1.1-0.42,1.64
					c-0.14,0.54-0.27,1.09-0.48,1.6c-0.14,0.37-0.28,0.73-0.42,1.11c0.14-0.37,0.28-0.74,0.42-1.11c1.35-3.83,1.87-7.88,1.63-11.83
					c0.2,1.81,0.18,3.76-0.12,6.04c0.18-0.61,0.24-1.37,0.32-2.2c0.07-0.83,0.18-1.74,0.12-2.64l-0.08-1.78
					c-0.01-0.6-0.16-1.18-0.23-1.77c-0.09-0.59-0.16-1.18-0.27-1.76l-0.43-1.72c0.96,3.52,1.39,7.15,1.21,10.48
					c0.48-4.97-0.3-10.22-2.27-14.87c1.05,2.56,1.96,5.21,2.3,7.96c0.6,4.61,0.21,9.39-1.25,13.88c0.07-0.17,0.1-0.35,0.14-0.52
					c-0.07,0.35-0.21,0.69-0.33,1.02c-0.34,0.86-0.61,1.75-1.01,2.58c-0.42,0.83-0.8,1.68-1.24,2.5c-0.43,0.72-0.84,1.43-1.25,2.16
					c-0.42,0.71-0.91,1.36-1.36,2.06L78.3,79.5c0.27-0.46,0.4-0.68-0.26,0.09c-2.87,3.17-6.44,6.38-11.04,8.25
					c-0.58,0.28-1.3,0.53-2.08,0.82c-0.78,0.29-1.61,0.65-2.53,0.87c-0.51,0.09-0.76,0.18-0.98,0.28c-0.39,0.1-0.78,0.24-1.19,0.31
					c-0.99,0.15-1.98,0.32-2.95,0.49c0.97-0.14,1.96-0.32,2.95-0.49c0.37-0.05,0.73-0.18,1.09-0.27c-0.24,0.1-0.48,0.25-1.03,0.35
					c6.79-1.33,13.4-5.08,18.01-10.7c-0.27,0.35-0.63,0.83-0.79,1.04c0.45-0.55,0.91-1.1,1.28-1.71c0.7-0.94,1.42-1.86,1.97-2.89
					c0.3-0.5,0.6-1,0.89-1.51l0.74-1.59c-0.28,0.64-0.51,1.25-0.71,1.78c3.18-5.87,4.47-12.82,3.4-19.46
					c-0.13-0.78-0.17-1.57-0.38-2.33l-0.56-2.29c-0.21-0.75-0.51-1.48-0.76-2.23c-0.23-0.75-0.57-1.46-0.91-2.17
					c-0.61-1.45-1.46-2.77-2.25-4.12c-0.93-1.26-1.81-2.56-2.9-3.69c2.15,2.59,4.11,5.55,5.46,8.85c-1.94-4.32-4.85-8.18-8.43-11.27
					c-3.57-3.11-7.89-5.3-12.44-6.56c0.44,0.07,0.9,0.14,1.37,0.21c0.48,0.08,0.94,0.24,1.4,0.35c0.91,0.26,1.78,0.4,2.31,0.56
					c0.03-0.22-2.92-1.28-1.18-0.74c3.14,1.07,5.67,2.52,7.57,3.93c0.48,0.34,0.94,0.66,1.38,0.97c0.41,0.34,0.8,0.66,1.17,0.95
					c0.75,0.58,1.44,1.04,2.01,1.45c0.12,0.06-0.08-0.27-0.42-0.78c-0.41-0.48-0.93-1.12-1.43-1.71c-0.49-0.62-1-1.13-1.25-1.41
					c-0.24-0.29-0.21-0.35,0.31,0c0.45,0.29,0.92,0.71,1.46,1.18c0.53,0.48,1.17,0.98,1.77,1.6c0.59,0.63,1.22,1.31,1.88,2.01
					c0.61,0.75,1.21,1.56,1.84,2.37c0.66,0.98,1.25,2.06,1.92,3.15c0.06,0.15,0.21,0.37,0.39,0.65c2.08,3.95,3.14,8.14,3.35,10.48
					c0.12,0.87,0.25,1.72,0.24,2.58c-0.01,0.45-0.04,0.84-0.09,1.14c0.06,0.54,0.17,1.08,0.16,1.62c-0.08,1.15-0.12,2.3-0.25,3.43
					c-0.19,1.12-0.34,2.25-0.58,3.35l-0.56,1.8c-0.19,0.6-0.35,1.19-0.61,1.76c0.05-0.01,0.18-0.18,0.13,0.06
					c-0.49,1.33-0.96,2.65-1.62,3.89c-0.32,0.62-0.58,1.28-0.96,1.87l-1.1,1.79c-0.3,0.48-0.66,0.9-1.01,1.28
					c-0.34,0.39-0.68,0.75-1,1.08c-0.35,0.69-1,1.45-1.75,2.33c-0.72,0.91-1.73,1.76-2.73,2.69c-0.49,0.48-1.09,0.85-1.64,1.28
					c-0.57,0.4-1.11,0.86-1.71,1.21c-1.2,0.69-2.31,1.47-3.43,1.96l0.01,0.01l-1.66,0.79c-0.55,0.27-1.15,0.44-1.72,0.67l-1.75,0.63
					c-0.6,0.15-1.2,0.31-1.81,0.46c-0.41,0.07-0.8,0.12-1.16,0.16c-0.58,0.21-1.23,0.27-1.53,0.36c-1.97,0.32-3.65,0.25-5.32,0.26
					c-0.3,0.05-0.88,0.13-1.53,0.1c-0.65-0.04-1.29-0.07-1.92-0.11c-0.63-0.06-1.24-0.17-1.85-0.26c-0.71-0.14-1.44-0.19-2.13-0.4
					c-0.7-0.19-1.41-0.38-2.12-0.57c-4.76-1.41-9.05-3.96-12.56-7.21c-0.08-0.14-0.07-0.21-0.05-0.28
					c-0.59-0.45-1.36-1.15-1.82-1.64c0.1,0.08,0.17,0.12,0.18,0.08c-1.54-1.55-1.75-1.91-2.85-3.53c-0.27-0.35-0.56-0.64-0.84-0.98
					c-0.13-0.17-0.23-0.36-0.34-0.55c-0.95-2.01-2.08-3.88-2.96-6.18c-0.39-1.16-0.8-2.31-1.03-3.52l-0.4-1.78l-0.23-1.81
					C21.61,62.52,21.89,61.76,21.9,60.44z"/>
				<path class="st1" d="M73.78,86.8c-1.92,1.34-3.99,2.41-6.12,3.31C69.94,89.08,71.81,87.9,73.78,86.8z"/>
				<path class="st1" d="M73.87,31.96c-0.66-0.69-1.55-1.26-2.5-1.91l1.94,1.19l1.82,1.36c0.3,0.23,0.61,0.45,0.9,0.69l0.84,0.76
					c0.55,0.52,1.13,1.01,1.66,1.55c1.01,1.13,2.09,2.21,2.95,3.47c0.44,0.62,0.95,1.2,1.33,1.87L84,42.92l-0.01,0.01
					c-0.32-0.53-0.66-1.08-1.01-1.65c-0.33-0.59-0.73-1.15-1.16-1.71c-0.42-0.57-0.84-1.14-1.26-1.71
					c-0.48-0.53-0.95-1.06-1.41-1.57c-0.89-1.07-1.96-1.88-2.83-2.67C75.42,32.86,74.53,32.35,73.87,31.96z"/>
				<path class="st1" d="M78.65,82.68c-0.06,0.08-0.12,0.18-0.19,0.27l-0.01,0.02C78.49,82.88,78.56,82.78,78.65,82.68z"/>
				<path class="st1" d="M62.88,29.26c-0.18-0.05-0.35-0.09-0.52-0.14c1.36,0.25,2.63,0.8,3.94,1.23c-0.53-0.18-1.08-0.36-1.65-0.55
					C64.08,29.61,63.5,29.39,62.88,29.26z"/>
				<path class="st1" d="M48.22,28.44c-2.74,0.6-5.47,1.42-7.96,2.74c-3.27,1.55-6.21,3.61-8.76,5.9c2.29-2.21,4.88-4.09,7.69-5.59
					C42.02,30.03,45.08,29.04,48.22,28.44z"/>
				<path class="st1" d="M63.5,26.8c-1.2-0.35-2.4-0.8-3.66-1c1.27,0.15,2.49,0.55,3.71,0.86C63.31,26.65,63.49,26.75,63.5,26.8z"/>
				<path class="st1" d="M73.2,34.26l-0.68-0.5c0.6,0.4,1.21,0.8,1.81,1.2C74.1,34.81,73.59,34.49,73.2,34.26z"/>
				<path class="st1" d="M50.14,25.43c0.93-0.13,1.87-0.1,2.8-0.15c-0.55,0.05-1.1,0.12-1.64,0.19
					C50.99,25.42,50.6,25.38,50.14,25.43z"/>
				<path class="st1" d="M36.44,30.14c-0.55,0.34-1.1,0.65-1.62,0.99c-0.5,0.37-1,0.73-1.48,1.08c0.6-0.44,1.17-0.93,1.81-1.34
					c0.64-0.4,1.29-0.8,1.93-1.19C36.8,29.9,36.59,30.07,36.44,30.14z"/>
			</g>
		</g>
	</g>
</g>
<g>
	<path class="st1" d="M55.06,84.99H53.9l-3.79-16.02c-1.43-6.05-2.86-10.64-4.29-13.76c-5.22,2.93-9.87,4.62-14.96,4.62
		c-2.79,0-5.45-0.6-7.81-1.9c-2.39-1.33-3.96-3.76-3.96-6.85c0-1.73,0.57-3.22,1.73-4.45c2.26-2.49,5.62-3.49,9.18-3.49
		c7.08,0,12.93,3.59,16.79,9.44l0.83,1.26l6.32-3.82c1.76-1.03,3.19-1.86,4.32-2.43c1.13-0.57,2.49-1.13,4.12-1.63
		c1.63-0.53,3.16-0.8,4.59-0.8c2.49,0,4.55,0.67,6.18,2.03c1.63,1.36,2.46,3.09,2.46,5.25c0,2.19-0.7,4.02-2.09,5.49
		c-1.4,1.43-3.26,2.16-5.62,2.16c-1.66,0-3.13-0.47-4.39-1.36c-1.26-0.9-1.9-2.16-1.9-3.72c0-1.63,0.83-3.22,2.83-3.22
		c1.1,0,1.89,0.9,1.89,1.86c0,0.8-0.53,1.46-1.56,1.5c0.3-0.23,0.47-0.53,0.47-0.9c0-0.63-0.4-1.13-1.2-1.13
		c-1.03,0-1.63,1.06-1.63,2.13c0,1.43,0.57,2.53,1.73,3.32c1.16,0.76,2.43,1.16,3.82,1.16c1.9,0,3.46-0.6,4.75-1.83
		c1.3-1.23,1.93-2.96,1.93-5.15c0-2.29-0.73-4.06-2.23-5.32c-1.46-1.26-3.39-1.89-5.78-1.89c-1.33,0-2.83,0.27-4.45,0.83
		c-1.63,0.57-2.96,1.1-3.96,1.63c-0.96,0.5-2.36,1.26-4.12,2.29c-0.83,0.47-2.03,1.2-3.62,2.16l-2.73,1.66
		c1.56,2.63,2.86,5.52,3.82,8.64s1.89,6.82,2.79,11.04l0.5,2.43l0.63,2.96c0.17-0.73,0.53-2.43,1.16-5.05
		c0.63-2.66,1.13-4.95,1.56-6.88c0.43-1.93,0.67-2.96,0.67-3.13c0-0.8-0.33-1.13-1.53-1.13v-0.53h4.75v0.53
		c-1.1,0-1.93,0.76-2.16,1.8L55.06,84.99z M45.72,54.93c-3.49-7.55-8.88-11.3-16.09-11.3c-4.72,0-9.87,2.39-9.87,7.81
		c0.33,5.82,6.02,8.11,11.37,8.08C36.14,59.52,40.43,57.89,45.72,54.93z"/>
</g>
<g>
	<path class="st2" d="M126.91,70.84l-19.89-47.84h5.85l14.63,35.95l15.02-35.95h5.4l-20.22,47.84H126.91z"/>
	<path class="st2" d="M159.08,22.99h25.29v4.61h-19.96v15.02h17.23v4.68h-17.23v16.77h20.22v4.94h-25.55V22.99z"/>
	<path class="st2" d="M200.36,22.99h10.08c17.75,0,27.56,9.23,27.56,23.01c0,8.52-3.9,15.28-11.38,19.57
		c-4.88,2.8-10.01,3.45-16.19,3.45h-10.08V22.99z M211.41,63.95c13.52,0,21-6.96,21-17.94S224.93,28,211.41,28h-5.66v35.95H211.41z"
		/>
	<path class="st2" d="M265.65,21.82h0.65l21.45,47.19h-5.92l-5.14-11.7h-21.78l-5.14,11.7h-5.66L265.65,21.82z M274.75,52.9
		l-8.84-20.28l-8.97,20.28H274.75z"/>
</g>
<g>
	<path class="st3" d="M114.78,81.44h-5.33v-1.62h12.46v1.62h-5.33V94.9h-1.81V81.44z"/>
	<path class="st3" d="M125.85,79.82h8.29v1.51h-6.54v4.92h5.64v1.53h-5.64v5.5h6.62v1.62h-8.37V79.82z"/>
	<path class="st3" d="M139.4,79.82h1.79v13.46h7.09v1.62h-8.88V79.82z"/>
	<path class="st3" d="M152.16,79.82h8.29v1.51h-6.54v4.92h5.64v1.53h-5.64v5.5h6.62v1.62h-8.37V79.82z"/>
	<path class="st3" d="M172.12,95.39c-1.73,0-3.34-0.57-4.64-1.64c-1.85-1.49-2.9-3.77-2.9-6.39c0-4.64,3.28-8.05,7.6-8.05
		c1.58,0,3.02,0.47,4.41,1.43l-0.19,1.87c-1.34-1.13-2.68-1.68-4.2-1.68c-3.34,0-5.82,2.68-5.82,6.43c0,3.69,2.41,6.37,5.75,6.37
		c1.64,0,3.11-0.64,4.62-1.92l-0.15,2.11C175.29,94.88,173.76,95.39,172.12,95.39z"/>
	<path class="st3" d="M182.36,81.61c1.38-1.47,3.26-2.28,5.22-2.28c1.96,0,3.81,0.81,5.22,2.3c1.41,1.51,2.17,3.49,2.17,5.73
		c0,1.87-0.51,3.56-1.51,4.94c-1.41,1.96-3.6,3.09-5.88,3.09c-1.94,0-3.83-0.83-5.22-2.3c-1.43-1.53-2.17-3.47-2.17-5.73
		C180.19,85.1,180.93,83.14,182.36,81.61z M187.58,93.73c3.11,0,5.56-2.66,5.56-6.37s-2.45-6.37-5.56-6.37S182,83.67,182,87.36
		C182,91.02,184.47,93.73,187.58,93.73z"/>
	<path class="st3" d="M201.49,79.33h0.17l5.2,12.25l5.22-12.25h0.17l2.98,15.57h-1.77l-1.92-10.4l-4.58,10.91h-0.23l-4.64-10.86
		l-2,10.35h-1.66L201.49,79.33z"/>
	<path class="st3" d="M227.73,79.82h8.39v1.58h-6.62v5.22h6.01v1.58h-6.01v6.71h-1.77V79.82z"/>
	<path class="st3" d="M248.84,81.39h-7.86l0.23-1.58h10.67l-9.16,13.48h9.05l-0.26,1.6h-11.86L248.84,81.39z"/>
	<path class="st3" d="M262.96,95.39c-1.73,0-3.34-0.57-4.64-1.64c-1.85-1.49-2.9-3.77-2.9-6.39c0-4.64,3.28-8.05,7.6-8.05
		c1.58,0,3.02,0.47,4.41,1.43l-0.19,1.87c-1.34-1.13-2.68-1.68-4.2-1.68c-3.34,0-5.82,2.68-5.82,6.43c0,3.69,2.41,6.37,5.75,6.37
		c1.64,0,3.11-0.64,4.62-1.92l-0.15,2.11C266.13,94.88,264.6,95.39,262.96,95.39z"/>
	<path class="st3" d="M273.21,81.61c1.38-1.47,3.26-2.28,5.22-2.28c1.96,0,3.81,0.81,5.22,2.3c1.41,1.51,2.17,3.49,2.17,5.73
		c0,1.87-0.51,3.56-1.51,4.94c-1.41,1.96-3.6,3.09-5.88,3.09c-1.94,0-3.83-0.83-5.22-2.3c-1.43-1.53-2.17-3.47-2.17-5.73
		C271.03,85.1,271.78,83.14,273.21,81.61z M278.42,93.73c3.11,0,5.56-2.66,5.56-6.37s-2.45-6.37-5.56-6.37s-5.58,2.68-5.58,6.37
		C272.84,91.02,275.31,93.73,278.42,93.73z"/>
</g>
</svg>
